<svg xmlns="http://www.w3.org/2000/svg" viewBox="0 0 41.48 61.71"><defs><style>.cls-1{fill:#fff;stroke:#000;stroke-miterlimit:10;}</style></defs><title>Asset 1</title><g id="Layer_2" data-name="Layer 2"><g id="Layer_1-2" data-name="Layer 1"><path class="cls-1" d="M9.92,30.67c2.33,1.13-1,8,1.25,17,2.09,8.4,7.93,14.06,9.12,13.48,1.59-.76-4.83-12.43,0-17.84.2-.22,1.64-1.83,2.7-1.45,3.16,1.11-1.8,17.89.83,18.88,1.79.67,7.48-5.85,9.13-14.11,1.92-9.6-2.4-17.58-1.25-18C33.13,28,38.15,40.79,40,40.22c2-.63,1.34-17.73-6.64-21.37-3-1.37-6.53-.6-6.84-1.87-.42-1.7,6-3,6.64-6.64C33.85,6.41,27.8-.36,21.33.59c-4.71.7-8.74,5.35-8.3,8.92s5.14,5.07,4.57,6.85c-.47,1.45-3.73.78-6.85,1.87C2.46,21.13-.85,35.15,1,36.28,2.51,37.2,7.38,29.44,9.92,30.67Z"/></g></g></svg>